<?xml version="1.0" encoding="utf-8"?>
<!-- Generator: Adobe Illustrator 25.2.3, SVG Export Plug-In . SVG Version: 6.00 Build 0)  -->
<svg version="1.1" id="Layer_1" xmlns="http://www.w3.org/2000/svg" xmlns:xlink="http://www.w3.org/1999/xlink" x="0px" y="0px"
	 viewBox="0 0 100 150" style="enable-background:new 0 0 100 150;" xml:space="preserve">
<style type="text/css">
	.st0{fill:#1C3661;}
	.st1{fill:#FFFFFF;}
	.st2{fill:none;stroke:#1C3661;stroke-width:4.079;stroke-linecap:round;stroke-miterlimit:10;}
</style>
<g>
	<g>
		<path class="st0" d="M90,42.31v80.16c0,8.5-17.91,15.39-40,15.39s-40-6.89-40-15.39V42.31"/>
		<ellipse class="st0" cx="50" cy="42.31" rx="40" ry="11.92"/>
		<ellipse class="st1" cx="50" cy="44.13" rx="32.76" ry="10.09"/>
	</g>
	<g>
		<g>
			<path class="st1" d="M15.89,76.59h5.62c3.32,0,5.46,1.76,5.46,4.77v0.04c0,3.2-2.38,4.88-5.64,4.88h-1.79v3.88H15.9V76.59H15.89z
				 M21.26,83.34c1.29,0,2.08-0.7,2.08-1.76v-0.04c0.01-1.16-0.79-1.78-2.1-1.78h-1.71v3.58H21.26z"/>
			<path class="st1" d="M28.51,76.59h6.2c2,0,3.39,0.54,4.27,1.47c0.77,0.77,1.16,1.82,1.16,3.16v0.04c0.08,1.82-1.01,3.49-2.7,4.17
				l3.12,4.73h-4.19l-2.64-4.11h-1.59v4.11H28.5V76.59H28.51z M34.55,83.11c1.25,0,1.95-0.62,1.95-1.61v-0.04
				c0-1.07-0.75-1.61-1.97-1.61h-2.38v3.26H34.55z"/>
			<rect x="42.06" y="76.59" class="st1" width="3.65" height="13.57"/>
			<path class="st1" d="M47.13,88.15l2.02-2.5c1.18,1.03,2.69,1.6,4.26,1.63c0.97,0,1.5-0.35,1.5-0.94v-0.03
				c0-0.56-0.43-0.87-2.21-1.3c-2.79-0.66-4.95-1.47-4.95-4.27v-0.05c0-2.52,1.93-4.34,5.08-4.34c2.23,0,3.98,0.62,5.4,1.8
				l-1.82,2.66c-1.06-0.82-2.34-1.29-3.67-1.34c-0.88,0-1.31,0.39-1.31,0.87v0.03c0,0.62,0.45,0.89,2.27,1.32
				c3.02,0.68,4.89,1.69,4.89,4.23v0.04c0,2.77-2.12,4.42-5.31,4.42c-2.26,0.05-4.45-0.75-6.15-2.25"/>
			<polygon class="st1" points="65.65,76.36 63.84,79.88 67.23,86.48 67.77,87.55 69.11,90.16 72.72,90.16 			"/>
			<polygon class="st1" points="64.2,86.48 64.92,85.07 63.05,81.43 58.58,90.16 62.31,90.16 62.68,89.46 67.17,89.46 65.64,86.48 
							"/>
			<polygon class="st1" points="81.28,90.16 74.46,90.16 67.17,76.36 73.99,76.36 			"/>
			<polygon class="st1" points="84.11,90.16 81.23,90.16 73.94,76.36 76.82,76.36 			"/>
			<path class="st1" d="M81.23,77.54L81.23,77.54c0-0.12-0.04-0.23-0.12-0.31c-0.12-0.11-0.29-0.17-0.45-0.15H80v1.38h0.39v-0.42
				h0.17l0.28,0.42h0.45l-0.33-0.49C81.12,77.9,81.23,77.73,81.23,77.54 M80.84,77.57c0,0.1-0.07,0.17-0.2,0.17h-0.26V77.4h0.25
				C80.76,77.4,80.84,77.45,80.84,77.57L80.84,77.57z"/>
			<path class="st1" d="M80.6,76.42c-0.75,0-1.35,0.61-1.35,1.35c0,0.75,0.61,1.35,1.35,1.35c0.75,0,1.35-0.61,1.35-1.35l0,0
				C81.95,77.03,81.34,76.42,80.6,76.42 M80.6,78.82c-0.58,0-1.04-0.47-1.04-1.04c0-0.58,0.47-1.04,1.04-1.04
				c0.58,0,1.04,0.47,1.04,1.04l0,0C81.64,78.35,81.17,78.82,80.6,78.82"/>
		</g>
	</g>
	<path class="st2" d="M12.02,41.53c0,0,3.98-29.38,37.98-29.38"/>
	<path class="st2" d="M87.98,41.53c0,0-3.98-29.38-37.98-29.38"/>
</g>
</svg>
