<?xml version="1.0" encoding="utf-8"?>
<!-- Generator: Adobe Illustrator 25.2.3, SVG Export Plug-In . SVG Version: 6.00 Build 0)  -->
<svg version="1.1" id="Layer_1" xmlns="http://www.w3.org/2000/svg" xmlns:xlink="http://www.w3.org/1999/xlink" x="0px" y="0px"
	 viewBox="0 0 100 150" style="enable-background:new 0 0 100 150;" xml:space="preserve">
<style type="text/css">
	.st0{fill:#1C3661;}
	.st1{fill:#FFFFFF;}
</style>
<g>
	<path class="st0" d="M73.83,79.37v49.07c0,5.2-10.67,9.42-23.83,9.42s-23.83-4.22-23.83-9.42V79.37"/>
	<ellipse class="st0" cx="50" cy="79.37" rx="23.83" ry="7.29"/>
	<g>
		<g>
			<path class="st1" d="M29.95,101.17h3.3c1.95,0,3.21,1.04,3.21,2.8V104c0,1.88-1.4,2.87-3.32,2.87h-1.06v2.28h-2.14V101.17z
				 M33.1,105.14c0.76,0,1.22-0.41,1.22-1.04v-0.02c0.01-0.68-0.46-1.05-1.23-1.05h-1v2.11H33.1z"/>
			<path class="st1" d="M37.36,101.17h3.65c1.18,0,1.99,0.32,2.51,0.87c0.45,0.46,0.68,1.07,0.68,1.86v0.02
				c0.04,1.07-0.59,2.05-1.59,2.45l1.84,2.78h-2.46l-1.55-2.42H39.5v2.42h-2.14V101.17z M40.91,105c0.73,0,1.15-0.37,1.15-0.95
				v-0.02c0-0.63-0.44-0.95-1.16-0.95h-1.4V105H40.91z"/>
			<rect x="45.33" y="101.17" class="st1" width="2.15" height="7.98"/>
			<path class="st1" d="M48.31,107.97l1.19-1.47c0.7,0.6,1.58,0.94,2.5,0.96c0.57,0,0.88-0.21,0.88-0.55v-0.02
				c0-0.33-0.25-0.51-1.3-0.76c-1.64-0.39-2.91-0.87-2.91-2.51v-0.03c0-1.48,1.13-2.55,2.99-2.55c1.31,0,2.34,0.37,3.17,1.06
				l-1.07,1.56c-0.62-0.48-1.38-0.76-2.16-0.79c-0.52,0-0.77,0.23-0.77,0.51v0.02c0,0.37,0.26,0.52,1.33,0.78
				c1.77,0.4,2.88,0.99,2.88,2.48v0.02c0,1.63-1.25,2.6-3.12,2.6C50.59,109.31,49.3,108.84,48.31,107.97"/>
			<polygon class="st1" points="59.2,101.04 58.14,103.11 60.13,106.99 60.45,107.62 61.24,109.15 63.36,109.15 			"/>
			<polygon class="st1" points="58.35,106.99 58.78,106.16 57.68,104.01 55.04,109.15 57.24,109.15 57.45,108.74 60.1,108.74 
				59.2,106.99 			"/>
			<polygon class="st1" points="68.39,109.15 64.38,109.15 60.1,101.04 64.11,101.04 			"/>
			<polygon class="st1" points="70.05,109.15 68.36,109.15 64.08,101.04 65.77,101.04 			"/>
			<path class="st1" d="M68.36,101.73L68.36,101.73c0-0.07-0.03-0.13-0.07-0.18c-0.07-0.07-0.17-0.1-0.27-0.09h-0.39v0.81h0.23
				v-0.25h0.1l0.16,0.25h0.26l-0.19-0.29C68.3,101.94,68.36,101.84,68.36,101.73 M68.13,101.75c0,0.06-0.04,0.1-0.12,0.1h-0.15v-0.2
				h0.15C68.09,101.65,68.13,101.68,68.13,101.75L68.13,101.75z"/>
			<path class="st1" d="M67.99,101.07c-0.44,0-0.8,0.36-0.8,0.8c0,0.44,0.36,0.8,0.8,0.8c0.44,0,0.8-0.36,0.8-0.8l0,0
				C68.79,101.43,68.43,101.07,67.99,101.07 M67.99,102.48c-0.34,0-0.61-0.27-0.61-0.61c0-0.34,0.27-0.61,0.61-0.61
				c0.34,0,0.61,0.27,0.61,0.61l0,0C68.6,102.21,68.33,102.48,67.99,102.48"/>
		</g>
	</g>
	<ellipse class="st1" cx="50" cy="80.49" rx="19.52" ry="6.18"/>
</g>
</svg>
