<?xml version="1.0" encoding="utf-8"?>
<!-- Generator: Adobe Illustrator 25.2.3, SVG Export Plug-In . SVG Version: 6.00 Build 0)  -->
<svg version="1.1" id="Layer_1" xmlns="http://www.w3.org/2000/svg" xmlns:xlink="http://www.w3.org/1999/xlink" x="0px" y="0px"
	 viewBox="0 0 100 150" style="enable-background:new 0 0 100 150;" xml:space="preserve">
<style type="text/css">
	.st0{fill:#1C3661;}
	.st1{fill:#FFFFFF;}
</style>
<g>
	<path class="st0" d="M81.81,59.79v65.49c0,6.94-14.24,12.57-31.81,12.57s-31.81-5.63-31.81-12.57V59.79"/>
	<ellipse class="st0" cx="50" cy="59.79" rx="31.81" ry="9.74"/>
	<g>
		<g>
			<path class="st1" d="M23.23,88.9h4.41c2.6,0,4.28,1.38,4.28,3.74v0.03c0,2.51-1.87,3.83-4.43,3.83h-1.41v3.04h-2.85V88.9z
				 M27.44,94.19c1.01,0,1.63-0.55,1.63-1.38v-0.03c0.01-0.91-0.62-1.4-1.65-1.4h-1.34v2.81H27.44z"/>
			<path class="st1" d="M33.13,88.9H38c1.57,0,2.66,0.43,3.35,1.16c0.6,0.61,0.91,1.43,0.91,2.48v0.03
				c0.06,1.43-0.79,2.74-2.12,3.27l2.45,3.71H39.3l-2.07-3.23h-1.25v3.23h-2.85V88.9z M37.87,94.01c0.98,0,1.53-0.49,1.53-1.26
				v-0.03c0-0.84-0.59-1.26-1.54-1.26h-1.87v2.56L37.87,94.01L37.87,94.01z"/>
			<rect x="43.77" y="88.9" class="st1" width="2.87" height="10.65"/>
			<path class="st1" d="M47.74,97.96L49.33,96c0.93,0.81,2.11,1.26,3.34,1.28c0.76,0,1.18-0.28,1.18-0.73v-0.03
				c0-0.44-0.34-0.69-1.74-1.02c-2.19-0.52-3.88-1.16-3.88-3.35v-0.04c0-1.98,1.51-3.41,3.98-3.41c1.75,0,3.12,0.49,4.24,1.42
				l-1.43,2.08c-0.83-0.64-1.84-1.01-2.88-1.05c-0.69,0-1.03,0.3-1.03,0.69v0.03c0,0.49,0.35,0.7,1.78,1.04
				c2.37,0.53,3.84,1.32,3.84,3.32v0.03c0,2.17-1.66,3.47-4.16,3.47C50.79,99.76,49.07,99.13,47.74,97.96"/>
			<polygon class="st1" points="62.28,88.71 60.86,91.48 63.52,96.66 63.95,97.5 65,99.55 67.83,99.55 			"/>
			<polygon class="st1" points="61.14,96.66 61.71,95.55 60.25,92.69 56.73,99.55 59.66,99.55 59.95,98.99 63.48,98.99 62.28,96.66 
							"/>
			<polygon class="st1" points="74.55,99.55 69.19,99.55 63.48,88.71 68.83,88.71 			"/>
			<polygon class="st1" points="76.77,99.55 74.51,99.55 68.79,88.71 71.05,88.71 			"/>
			<path class="st1" d="M74.51,89.64L74.51,89.64c0-0.09-0.03-0.18-0.1-0.24c-0.1-0.09-0.23-0.13-0.36-0.12h-0.52v1.08h0.3v-0.33
				h0.13l0.22,0.33h0.35l-0.26-0.38C74.42,89.92,74.51,89.79,74.51,89.64 M74.2,89.66c0,0.08-0.06,0.13-0.16,0.13h-0.2v-0.27h0.2
				C74.14,89.53,74.2,89.57,74.2,89.66L74.2,89.66z"/>
			<path class="st1" d="M74.01,88.76c-0.59,0-1.06,0.48-1.06,1.06s0.48,1.06,1.06,1.06c0.59,0,1.06-0.48,1.06-1.06l0,0
				C75.08,89.24,74.6,88.76,74.01,88.76 M74.01,90.64c-0.45,0-0.82-0.37-0.82-0.82S73.56,89,74.01,89s0.82,0.37,0.82,0.82l0,0
				C74.83,90.28,74.46,90.64,74.01,90.64"/>
		</g>
	</g>
	<ellipse class="st1" cx="50" cy="61.28" rx="26.05" ry="8.25"/>
</g>
</svg>
